<?xml version="1.0" encoding="utf-8"?>
<!-- Generator: Adobe Illustrator 23.0.1, SVG Export Plug-In . SVG Version: 6.00 Build 0)  -->
<svg version="1.1" id="Layer_1" xmlns="http://www.w3.org/2000/svg" xmlns:xlink="http://www.w3.org/1999/xlink" x="0px" y="0px"
	 viewBox="0 0 1568.9 272.8" style="enable-background:new 0 0 1568.9 272.8;" xml:space="preserve">
<style type="text/css">
	.st0{fill:#FFFFFF;}
</style>
<path class="st0" d="M799.7,39.9c-2.4,0-4.4,0.8-5.9,2.5s-2.2,3.8-2.2,6.4v159.7L669.9,44.1c-1.9-2.8-4.3-4.2-7.2-4.2
	c-2.8,0-5,0.8-6.6,2.5s-2.4,3.8-2.4,6.4v181.4c0,2.8,0.6,5,1.9,6.6c1.3,1.6,3.3,2.4,6.1,2.4c2.4,0,4.4-0.8,5.9-2.5s2.2-3.8,2.2-6.4
	v-160l122,164.7c2.2,2.8,4.7,4.2,7.5,4.2c2.6,0,4.6-0.8,6.1-2.5s2.2-3.8,2.2-6.4V48.9c0-2.8-0.7-5-2.1-6.5
	C804.3,40.7,802.3,39.9,799.7,39.9z M1439.2,38.5c-55.4,0-100.4,45-100.4,100.4s45,100.4,100.4,100.4s100.4-45,100.4-100.4
	C1539.6,83.6,1494.5,38.5,1439.2,38.5z M1439.2,222.9c-46.3,0-84-37.7-84-84s37.7-84,84-84s84,37.7,84,84S1485.5,222.9,1439.2,222.9
	z M976.4,45.8c-0.7-1.9-2-3.3-3.8-4.5c-1.8-1.1-3.7-1.7-5.7-1.7c-4.5,0-7.5,2-9.2,6.1l-81.4,182.8c-0.4,0.7-0.6,1.8-0.6,3.1
	c0,2.2,0.8,4,2.4,5.4c1.6,1.4,3.5,2.1,5.7,2.1c3.5,0,6.1-1.8,7.8-5.3l21.5-48.5h108.1l21.2,48.5c0.7,1.7,1.8,3,3.2,3.9
	c1.4,0.9,2.8,1.4,4.3,1.4c2.2,0,4.2-0.7,5.9-2.1c1.7-1.4,2.5-3.1,2.5-5.1c0-1.1-0.3-2.2-0.8-3.3L976.4,45.8z M919.5,170.3
	l47.6-107.8l47.4,107.8H919.5z M1272,39.9c-2.4,0-4.4,0.8-5.8,2.5c-1.5,1.7-2.2,3.8-2.2,6.4v159.7L1142.2,44.1
	c-1.9-2.8-4.3-4.2-7.2-4.2c-2.8,0-5,0.8-6.6,2.5s-2.4,3.8-2.4,6.4v181.4c0,2.8,0.6,5,1.9,6.6c1.3,1.6,3.3,2.4,6.1,2.4
	c2.4,0,4.4-0.8,5.9-2.5s2.2-3.8,2.2-6.4v-160l122,164.7c2.2,2.8,4.7,4.2,7.5,4.2c2.6,0,4.6-0.8,6.1-2.5s2.2-3.8,2.2-6.4V48.9
	c0-2.8-0.7-5-2.1-6.5C1276.6,40.7,1274.6,39.9,1272,39.9z"/>
<g>
	<path class="st0" d="M303.2,138.9c0,18.4-14.9,33.2-33.2,33.2s-33.2-14.9-33.2-33.2c0-24.9-8.3-33.2-33.2-33.2s-33.2,8.3-33.2,33.2
		c0,18.4-14.9,33.2-33.2,33.2S104,157.2,104,138.9c0-18.4,14.9-33.2,33.2-33.2c24.9,0,33.2-8.3,33.2-33.2
		c0-18.4,14.9-33.2,33.2-33.2s33.2,14.9,33.2,33.2c0,24.9,8.3,33.2,33.2,33.2C288.4,105.7,303.2,120.6,303.2,138.9z"/>
	<circle class="st0" cx="70.6" cy="205.4" r="33.2"/>
	<path class="st0" d="M502.7,72.5c0,18.4-14.9,33.2-33.2,33.2c-24.9,0-33.2,8.3-33.2,33.2c0,18.4-14.9,33.2-33.2,33.2
		c-24.9,0-33.2,8.3-33.2,33.2c0,18.4-14.9,33.2-33.2,33.2s-33.2-14.9-33.2-33.2c0-18.4,14.9-33.2,33.2-33.2
		c24.9,0,33.2-8.3,33.2-33.2c0-18.4,14.9-33.2,33.2-33.2c24.9,0,33.2-8.3,33.2-33.2c0-18.4,14.9-33.2,33.2-33.2
		S502.7,54.1,502.7,72.5z"/>
</g>
</svg>
