<svg xmlns="http://www.w3.org/2000/svg" width="245" height="256" viewBox="0 0 245 256" fill="none">
<path d="M0 16C0 7.16344 7.16344 0 16 0H229C237.837 0 245 7.16344 245 16V256H0V16Z" fill="white"></path>
<path d="M29 214.125H39.3125V221H29V214.125ZM39 214.125H49.3125V221H39V214.125ZM49 214.125H59.3125V221H49V214.125ZM59 214.125H69.3125V221H59V214.125ZM69 214.125H79.3125V221H69V214.125ZM99.0625 214.125H109.375V221H99.0625V214.125ZM109.062 214.125H119.375V221H109.062V214.125ZM139.125 214.125H149.438V221H139.125V214.125ZM149.125 214.125H159.438V221H149.125V214.125ZM159.125 214.125H169.438V221H159.125V214.125ZM169.125 214.125H179.438V221H169.125V214.125ZM29 224.125H39.3125V231H29V224.125ZM39 224.125H49.3125V231H39V224.125ZM49 224.125H59.3125V231H49V224.125ZM59 224.125H69.3125V231H59V224.125ZM69 224.125H79.3125V231H69V224.125ZM99.0625 224.125H109.375V231H99.0625V224.125ZM109.062 224.125H119.375V231H109.062V224.125ZM119.062 224.125H129.375V231H119.062V224.125ZM129.062 224.125H139.375V231H129.062V224.125ZM139.062 224.125H149.375V231H139.062V224.125ZM169.125 224.125H179.438V231H169.125V224.125ZM179.125 224.125H189.438V231H179.125V224.125Z" fill="#DCE9F9" fill-opacity="0.66"></path>
<path d="M29 72.125H39.3125V79H29V72.125ZM39 72.125H49.3125V79H39V72.125ZM49 72.125H59.3125V79H49V72.125ZM79.0625 72.125H89.375V79H79.0625V72.125ZM89.0625 72.125H99.375V79H89.0625V72.125ZM99.0625 72.125H109.375V79H99.0625V72.125ZM109.062 72.125H119.375V79H109.062V72.125ZM119.062 72.125H129.375V79H119.062V72.125ZM129.062 72.125H139.375V79H129.062V72.125ZM139.062 72.125H149.375V79H139.062V72.125ZM149.062 72.125H159.375V79H149.062V72.125ZM159.062 72.125H169.375V79H159.062V72.125Z" fill="#DCE9F9"></path>
<path d="M29 96.125H39.3125V103H29V96.125ZM39 96.125H49.3125V103H39V96.125ZM49 96.125H59.3125V103H49V96.125ZM59 96.125H69.3125V103H59V96.125ZM69 96.125H79.3125V103H69V96.125ZM99.0625 96.125H109.375V103H99.0625V96.125ZM109.062 96.125H119.375V103H109.062V96.125ZM119.062 96.125H129.375V103H119.062V96.125ZM129.062 96.125H139.375V103H129.062V96.125ZM139.062 96.125H149.375V103H139.062V96.125ZM29 106.125H39.3125V113H29V106.125ZM39 106.125H49.3125V113H39V106.125ZM49 106.125H59.3125V113H49V106.125ZM59 106.125H69.3125V113H59V106.125ZM69 106.125H79.3125V113H69V106.125ZM99.0625 106.125H109.375V113H99.0625V106.125ZM109.062 106.125H119.375V113H109.062V106.125ZM139.125 106.125H149.438V113H139.125V106.125ZM149.125 106.125H159.438V113H149.125V106.125ZM159.125 106.125H169.438V113H159.125V106.125ZM169.125 106.125H179.438V113H169.125V106.125ZM29 116.125H39.3125V123H29V116.125ZM39 116.125H49.3125V123H39V116.125ZM49 116.125H59.3125V123H49V116.125ZM59 116.125H69.3125V123H59V116.125ZM69 116.125H79.3125V123H69V116.125ZM99.0625 116.125H109.375V123H99.0625V116.125ZM109.062 116.125H119.375V123H109.062V116.125ZM119.062 116.125H129.375V123H119.062V116.125ZM129.062 116.125H139.375V123H129.062V116.125ZM139.062 116.125H149.375V123H139.062V116.125ZM169.125 116.125H179.438V123H169.125V116.125ZM179.125 116.125H189.438V123H179.125V116.125ZM29 126.125H39.3125V133H29V126.125ZM39 126.125H49.3125V133H39V126.125ZM49 126.125H59.3125V133H49V126.125ZM59 126.125H69.3125V133H59V126.125ZM89.0625 126.125H99.375V133H89.0625V126.125ZM99.0625 126.125H109.375V133H99.0625V126.125ZM109.062 126.125H119.375V133H109.062V126.125ZM119.062 126.125H129.375V133H119.062V126.125ZM129.062 126.125H139.375V133H129.062V126.125ZM159.125 126.125H169.438V133H159.125V126.125ZM169.125 126.125H179.438V133H169.125V126.125ZM29 136.125H39.3125V143H29V136.125ZM39 136.125H49.3125V143H39V136.125ZM49 136.125H59.3125V143H49V136.125ZM59 136.125H69.3125V143H59V136.125ZM69 136.125H79.3125V143H69V136.125ZM99.0625 136.125H109.375V143H99.0625V136.125ZM109.062 136.125H119.375V143H109.062V136.125ZM119.062 136.125H129.375V143H119.062V136.125ZM129.062 136.125H139.375V143H129.062V136.125ZM159.125 136.125H169.438V143H159.125V136.125ZM169.125 136.125H179.438V143H169.125V136.125ZM29 146.125H39.3125V153H29V146.125ZM39 146.125H49.3125V153H39V146.125ZM49 146.125H59.3125V153H49V146.125ZM59 146.125H69.3125V153H59V146.125ZM69 146.125H79.3125V153H69V146.125Z" fill="#DCE9F9" fill-opacity="0.66"></path>
<rect x="29" y="168" width="187" height="35" rx="6" fill="#DCE9F9"></rect>
<path d="M117.663 36.2694C117.513 36.2694 117.387 36.3207 117.293 36.4297C117.199 36.5386 117.155 36.6732 117.155 36.8399V47.0693L109.524 36.5386C109.405 36.3592 109.254 36.2694 109.072 36.2694C108.897 36.2694 108.759 36.3207 108.659 36.4297C108.558 36.5386 108.508 36.6732 108.508 36.8399V48.4666C108.508 48.646 108.546 48.787 108.627 48.8896C108.709 48.9921 108.834 49.0434 109.01 49.0434C109.16 49.0434 109.286 48.9921 109.38 48.8832C109.474 48.7742 109.518 48.6396 109.518 48.473V38.2179L117.168 48.7742C117.306 48.9537 117.462 49.0434 117.638 49.0434C117.801 49.0434 117.926 48.9921 118.02 48.8832C118.114 48.7742 118.158 48.6396 118.158 48.473V36.8399C118.158 36.6604 118.114 36.5194 118.027 36.4232C117.951 36.3207 117.826 36.2694 117.663 36.2694ZM157.763 36.1797C154.289 36.1797 151.467 39.0639 151.467 42.6148C151.467 46.1656 154.289 49.0498 157.763 49.0498C161.237 49.0498 164.058 46.1656 164.058 42.6148C164.058 39.0639 161.23 36.1797 157.763 36.1797ZM157.763 47.9987C154.859 47.9987 152.496 45.5823 152.496 42.6148C152.496 39.6472 154.859 37.2308 157.763 37.2308C160.666 37.2308 163.03 39.6472 163.03 42.6148C163.03 45.5823 160.666 47.9987 157.763 47.9987ZM128.743 36.6476C128.699 36.5258 128.618 36.4361 128.505 36.3592C128.392 36.2886 128.273 36.2502 128.147 36.2502C127.865 36.2502 127.677 36.3784 127.57 36.6412L122.466 48.3576C122.441 48.4025 122.429 48.473 122.429 48.5563C122.429 48.6973 122.479 48.8127 122.579 48.9024C122.679 48.9921 122.799 49.037 122.936 49.037C123.156 49.037 123.319 48.9216 123.426 48.6973L124.774 45.5887H131.552L132.881 48.6973C132.925 48.8063 132.994 48.8896 133.082 48.9473C133.17 49.005 133.258 49.037 133.352 49.037C133.49 49.037 133.615 48.9921 133.722 48.9024C133.828 48.8127 133.878 48.7037 133.878 48.5755C133.878 48.505 133.86 48.4345 133.828 48.364L128.743 36.6476ZM125.175 44.6273L128.16 37.718L131.132 44.6273H125.175ZM147.278 36.2694C147.128 36.2694 147.003 36.3207 146.915 36.4297C146.821 36.5386 146.777 36.6732 146.777 36.8399V47.0693L139.139 36.5322C139.02 36.3527 138.87 36.263 138.688 36.263C138.512 36.263 138.374 36.3143 138.274 36.4232C138.174 36.5322 138.124 36.6668 138.124 36.8334V48.4602C138.124 48.6396 138.161 48.7806 138.243 48.8832C138.324 48.9857 138.45 49.037 138.625 49.037C138.776 49.037 138.901 48.9857 138.995 48.8768C139.089 48.7678 139.133 48.6332 139.133 48.4666V38.2179L146.783 48.7742C146.921 48.9537 147.078 49.0434 147.253 49.0434C147.416 49.0434 147.542 48.9921 147.636 48.8832C147.73 48.7742 147.774 48.6396 147.774 48.473V36.8399C147.774 36.6604 147.73 36.5194 147.642 36.4232C147.567 36.3207 147.442 36.2694 147.278 36.2694Z" fill="#000034"></path>
<path d="M86.5301 42.6143C86.5301 43.7936 85.5958 44.7422 84.4483 44.7422C83.3008 44.7422 82.3665 43.7872 82.3665 42.6143C82.3665 41.0183 81.8461 40.4863 80.2847 40.4863C78.7234 40.4863 78.2029 41.0183 78.2029 42.6143C78.2029 43.7936 77.2686 44.7422 76.1211 44.7422C74.9736 44.7422 74.0393 43.7872 74.0393 42.6143C74.0393 41.4349 74.9736 40.4863 76.1211 40.4863C77.6825 40.4863 78.2029 39.9544 78.2029 38.3584C78.2029 37.1791 79.1372 36.2305 80.2847 36.2305C81.4322 36.2305 82.3665 37.1855 82.3665 38.3584C82.3665 39.9544 82.8869 40.4863 84.4483 40.4863C85.6021 40.4863 86.5301 41.4349 86.5301 42.6143Z" fill="#4A90E2"></path>
<path d="M71.945 49.0039C73.0947 49.0039 74.0268 48.0512 74.0268 46.876C74.0268 45.7008 73.0947 44.748 71.945 44.748C70.7952 44.748 69.8632 45.7008 69.8632 46.876C69.8632 48.0512 70.7952 49.0039 71.945 49.0039Z" fill="#4A90E2"></path>
<path d="M99.0397 38.3516C99.0397 39.5309 98.1054 40.4795 96.9579 40.4795C95.3965 40.4795 94.8761 41.0115 94.8761 42.6074C94.8761 43.7868 93.9418 44.7354 92.7943 44.7354C91.2329 44.7354 90.7125 45.2673 90.7125 46.8633C90.7125 48.0426 89.7782 48.9912 88.6307 48.9912C87.4832 48.9912 86.5489 48.0362 86.5489 46.8633C86.5489 45.684 87.4832 44.7354 88.6307 44.7354C90.192 44.7354 90.7125 44.2034 90.7125 42.6074C90.7125 41.4281 91.6468 40.4795 92.7943 40.4795C94.3556 40.4795 94.8761 39.9475 94.8761 38.3516C94.8761 37.1722 95.8104 36.2236 96.9579 36.2236C98.1054 36.2236 99.0397 37.1786 99.0397 38.3516Z" fill="#4A90E2"></path>
</svg>