<?xml version="1.0" encoding="utf-8"?>
<!-- Generator: Adobe Illustrator 22.0.1, SVG Export Plug-In . SVG Version: 6.00 Build 0)  -->
<svg version="1.1" id="Layer_1" xmlns="http://www.w3.org/2000/svg" xmlns:xlink="http://www.w3.org/1999/xlink" x="0px" y="0px"
	 viewBox="0 0 1770.2 780.1" style="enable-background:new 0 0 1770.2 780.1;" xml:space="preserve">
<style type="text/css">
	.st0{fill:#FFFFFF;}
</style>
<g>
	<path class="st0" d="M985.7,390c0,55.6-45.1,100.6-100.6,100.6S784.4,445.6,784.4,390c0-75.5-25.2-100.6-100.6-100.6
		S583.2,314.6,583.2,390c0,55.6-45.1,100.6-100.6,100.6S381.9,445.6,381.9,390c0-55.6,45.1-100.6,100.6-100.6
		c75.5,0,100.6-25.2,100.6-100.6c0-55.6,45.1-100.6,100.6-100.6s100.6,45.1,100.6,100.6c0,75.5,25.2,100.6,100.6,100.6
		C940.7,289.4,985.7,334.5,985.7,390z"/>
	<circle class="st0" cx="281.2" cy="591.3" r="100.6"/>
	<path class="st0" d="M1589.6,188.7c0,55.6-45.1,100.6-100.6,100.6c-75.5,0-100.6,25.2-100.6,100.6c0,55.6-45.1,100.6-100.6,100.6
		c-75.5,0-100.6,25.2-100.6,100.6c0,55.6-45.1,100.6-100.6,100.6c-55.6,0-100.6-45.1-100.6-100.6c0-55.6,45.1-100.6,100.6-100.6
		c75.5,0,100.6-25.2,100.6-100.6c0-55.6,45.1-100.6,100.6-100.6c75.5,0,100.6-25.2,100.6-100.6c0-55.6,45.1-100.6,100.6-100.6
		C1544.5,88.1,1589.6,133.2,1589.6,188.7z"/>
</g>
</svg>
